<?xml version="1.0" encoding="UTF-8" standalone="no"?>
<!DOCTYPE svg PUBLIC "-//W3C//DTD SVG 1.1//EN" "http://www.w3.org/Graphics/SVG/1.1/DTD/svg11.dtd">
<svg version="1.1" xmlns="http://www.w3.org/2000/svg" xmlns:xlink="http://www.w3.org/1999/xlink" preserveAspectRatio="xMidYMid meet" viewBox="0 0 126 126" width="126" height="126"><defs><path d="M108.43 19.02C108.45 19.08 108.55 19.38 108.74 19.93C110.82 25.94 111.97 29.27 112.2 29.94C114.14 39.27 115.23 46.67 115.48 52.16C115.84 60.39 114.8 73.86 107.74 85.99C100.68 98.13 79.87 109.59 77.71 110.17C75.56 110.74 72.61 114.09 68.54 118.09C64.46 122.1 64.64 120.84 62.06 120.99C60.34 121.1 56.76 117.58 51.31 110.44C44.41 106.98 37.86 102.76 31.68 97.79C25.5 92.82 20.81 87.33 17.61 81.32C16.63 79.4 15.31 76.74 13.64 73.34C11.13 68.23 10.35 61.65 10.25 59.25C10.14 56.85 10.46 47.39 12.8 38.12C14.35 31.94 17.3 25.52 21.63 18.87C31.94 14.56 45.61 12.27 62.62 12C79.64 11.74 94.91 14.08 108.43 19.02Z" id="cq68mhlXU"></path><path d="M108.43 19.02C108.45 19.08 108.55 19.38 108.74 19.93C110.82 25.94 111.97 29.27 112.2 29.94C114.14 39.27 115.23 46.67 115.48 52.16C115.84 60.39 114.8 73.86 107.74 85.99C100.68 98.13 79.87 109.59 77.71 110.17C75.56 110.74 72.61 114.09 68.54 118.09C64.46 122.1 64.64 120.84 62.06 120.99C60.34 121.1 56.76 117.58 51.31 110.44C44.41 106.98 37.86 102.76 31.68 97.79C25.5 92.82 20.81 87.33 17.61 81.32C16.63 79.4 15.31 76.74 13.64 73.34C11.13 68.23 10.35 61.65 10.25 59.25C10.14 56.85 10.46 47.39 12.8 38.12C14.35 31.94 17.3 25.52 21.63 18.87C31.94 14.56 45.61 12.27 62.62 12C79.64 11.74 94.91 14.08 108.43 19.02Z" id="aWfBsquv"></path><path d="M21.49 18.97C21.52 18.81 21.16 19.06 21.25 18.97C28.57 11.54 47.28 5.16 66.39 4.94C74.79 4.84 83.71 6.84 93.14 10.95C97.97 13.05 103.01 15.71 108.28 18.91C108.33 18.94 108.35 19.01 108.33 19.06C108.22 19.27 108.26 19.2 108.23 19.26C107.95 19.83 107.58 20.35 107.13 20.8C107 20.92 106.69 21.23 106.2 21.71C106.05 21.81 104.81 22.65 104.65 22.75C103.97 23.03 103.54 23.21 103.37 23.28C102.87 23.49 102.34 23.66 101.81 23.77C101.13 23.92 99.45 24.29 96.75 24.87C97.47 26.55 97.23 28.06 96.03 29.41C94.23 31.43 88.97 36.64 76.98 33.62C76.24 33.44 76.1 34.19 75.69 34.57C74.96 35.25 74.09 35.96 72.57 36.72C70.13 37.93 65.3 37.89 63.16 37.9C59.26 37.92 55.75 36.45 52.62 33.48C46.97 35.28 42.09 35.02 37.99 32.69C33.89 30.36 32.19 27.63 32.9 24.51C29.8 24.35 27.51 23.83 26.05 22.96C25.01 22.34 21.27 20.06 21.49 18.97Z" id="a794sJxJl"></path><path d="M21.49 18.97C21.52 18.81 21.16 19.06 21.25 18.97C28.57 11.54 47.28 5.16 66.39 4.94C74.79 4.84 83.71 6.84 93.14 10.95C97.97 13.05 103.01 15.71 108.28 18.91C108.33 18.94 108.35 19.01 108.33 19.06C108.22 19.27 108.26 19.2 108.23 19.26C107.95 19.83 107.58 20.35 107.13 20.8C107 20.92 106.69 21.23 106.2 21.71C106.05 21.81 104.81 22.65 104.65 22.75C103.97 23.03 103.54 23.21 103.37 23.28C102.87 23.49 102.34 23.66 101.81 23.77C101.13 23.92 99.45 24.29 96.75 24.87C97.47 26.55 97.23 28.06 96.03 29.41C94.23 31.43 88.97 36.64 76.98 33.62C76.24 33.44 76.1 34.19 75.69 34.57C74.96 35.25 74.09 35.96 72.57 36.72C70.13 37.93 65.3 37.89 63.16 37.9C59.26 37.92 55.75 36.45 52.62 33.48C46.97 35.28 42.09 35.02 37.99 32.69C33.89 30.36 32.19 27.63 32.9 24.51C29.8 24.35 27.51 23.83 26.05 22.96C25.01 22.34 21.27 20.06 21.49 18.97Z" id="c2JJyemhF6"></path><path d="M62.77 19.95C56.98 19.92 52.29 18.09 52.31 15.87C52.33 13.64 57.04 11.87 62.83 11.9C68.61 11.93 73.3 13.76 73.28 15.99C73.26 18.21 68.55 19.99 62.77 19.95Z" id="awbg3x6rM"></path><path d="M62.77 19.95C56.98 19.92 52.29 18.09 52.31 15.87C52.33 13.64 57.04 11.87 62.83 11.9C68.61 11.93 73.3 13.76 73.28 15.99C73.26 18.21 68.55 19.99 62.77 19.95Z" id="bdfxepDCc"></path><path d="M76.89 61.38C73.06 61.38 69.95 58.33 69.95 54.58C69.95 50.83 73.06 47.78 76.89 47.78C80.71 47.78 83.82 50.83 83.82 54.58C83.82 58.33 80.71 61.38 76.89 61.38Z" id="c13w6XnAJz"></path><path d="M76.89 61.38C73.06 61.38 69.95 58.33 69.95 54.58C69.95 50.83 73.06 47.78 76.89 47.78C80.71 47.78 83.82 50.83 83.82 54.58C83.82 58.33 80.71 61.38 76.89 61.38Z" id="c7SyarMoK9"></path><path d="M74.77 55.13C73.58 55.13 72.61 54.18 72.61 53.01C72.61 51.84 73.58 50.89 74.77 50.89C75.96 50.89 76.93 51.84 76.93 53.01C76.93 54.18 75.96 55.13 74.77 55.13Z" id="d43RFa7f5n"></path><path d="M74.77 55.13C73.58 55.13 72.61 54.18 72.61 53.01C72.61 51.84 73.58 50.89 74.77 50.89C75.96 50.89 76.93 51.84 76.93 53.01C76.93 54.18 75.96 55.13 74.77 55.13Z" id="e1lOsCbcFo"></path><path d="M51.46 61.38C47.63 61.38 44.52 58.33 44.52 54.58C44.52 50.83 47.63 47.78 51.46 47.78C55.28 47.78 58.39 50.83 58.39 54.58C58.39 58.33 55.28 61.38 51.46 61.38Z" id="aSrbYub2"></path><path d="M51.46 61.38C47.63 61.38 44.52 58.33 44.52 54.58C44.52 50.83 47.63 47.78 51.46 47.78C55.28 47.78 58.39 50.83 58.39 54.58C58.39 58.33 55.28 61.38 51.46 61.38Z" id="boUQmUh9C"></path><path d="M49.34 55.13C48.15 55.13 47.18 54.18 47.18 53.01C47.18 51.84 48.15 50.89 49.34 50.89C50.53 50.89 51.5 51.84 51.5 53.01C51.5 54.18 50.53 55.13 49.34 55.13Z" id="b152zgU8BJ"></path><path d="M49.34 55.13C48.15 55.13 47.18 54.18 47.18 53.01C47.18 51.84 48.15 50.89 49.34 50.89C50.53 50.89 51.5 51.84 51.5 53.01C51.5 54.18 50.53 55.13 49.34 55.13Z" id="b3i5VhyFlB"></path><path d="M64.79 72.77C69.92 72.33 70.9 69.86 71.38 69.49C71.89 69.1 72.44 69.29 72.6 69.51C72.91 69.95 72.88 70.68 72.21 71.28C67.28 75.64 61.88 75.59 56.03 71.12C55.95 71.07 55.9 71 55.86 70.91C55.57 70.23 55.73 70.6 55.68 70.49C55.34 69.69 56.29 68.96 56.98 69.49C59.94 71.78 62.26 72.89 63.94 72.83C64.24 72.82 64.52 72.8 64.79 72.77Z" id="b11XGaAjY"></path><path d="M64.79 72.77C69.92 72.33 70.9 69.86 71.38 69.49C71.89 69.1 72.44 69.29 72.6 69.51C72.91 69.95 72.88 70.68 72.21 71.28C67.28 75.64 61.88 75.59 56.03 71.12C55.95 71.07 55.9 71 55.86 70.91C55.57 70.23 55.73 70.6 55.68 70.49C55.34 69.69 56.29 68.96 56.98 69.49C59.94 71.78 62.26 72.89 63.94 72.83C64.24 72.82 64.52 72.8 64.79 72.77Z" id="b1bp49XPgd"></path></defs><g><g><g><use xlink:href="#cq68mhlXU" opacity="1" fill="#ed9e5b" fill-opacity="1"></use><g><use xlink:href="#cq68mhlXU" opacity="1" fill-opacity="0" stroke="#000000" stroke-width="1" stroke-opacity="0"></use></g></g><g><use xlink:href="#aWfBsquv" opacity="1" fill="#000000" fill-opacity="0"></use><g><use xlink:href="#aWfBsquv" opacity="1" fill-opacity="0" stroke="#7c5136" stroke-width="0" stroke-opacity="1"></use></g></g><g><use xlink:href="#a794sJxJl" opacity="1" fill="#f4ce84" fill-opacity="1"></use><g><use xlink:href="#a794sJxJl" opacity="1" fill-opacity="0" stroke="#000000" stroke-width="1" stroke-opacity="0"></use></g></g><g><use xlink:href="#c2JJyemhF6" opacity="1" fill="#000000" fill-opacity="0"></use><g><use xlink:href="#c2JJyemhF6" opacity="1" fill-opacity="0" stroke="#7c5136" stroke-width="0" stroke-opacity="1"></use></g></g><g><use xlink:href="#awbg3x6rM" opacity="1" fill="#7c5136" fill-opacity="1"></use><g><use xlink:href="#awbg3x6rM" opacity="1" fill-opacity="0" stroke="#000000" stroke-width="1" stroke-opacity="0"></use></g></g><g><use xlink:href="#bdfxepDCc" opacity="1" fill="#000000" fill-opacity="0"></use><g><use xlink:href="#bdfxepDCc" opacity="1" fill-opacity="0" stroke="#7c5136" stroke-width="0" stroke-opacity="1"></use></g></g><g><use xlink:href="#c13w6XnAJz" opacity="1" fill="#191512" fill-opacity="1"></use><g><use xlink:href="#c13w6XnAJz" opacity="1" fill-opacity="0" stroke="#000000" stroke-width="1" stroke-opacity="0"></use></g></g><g><use xlink:href="#c7SyarMoK9" opacity="1" fill="#000000" fill-opacity="0"></use><g><use xlink:href="#c7SyarMoK9" opacity="1" fill-opacity="0" stroke="#7c5136" stroke-width="0" stroke-opacity="1"></use></g></g><g><use xlink:href="#d43RFa7f5n" opacity="1" fill="#ffffff" fill-opacity="1"></use><g><use xlink:href="#d43RFa7f5n" opacity="1" fill-opacity="0" stroke="#000000" stroke-width="1" stroke-opacity="0"></use></g></g><g><use xlink:href="#e1lOsCbcFo" opacity="1" fill="#000000" fill-opacity="0"></use><g><use xlink:href="#e1lOsCbcFo" opacity="1" fill-opacity="0" stroke="#7c5136" stroke-width="0" stroke-opacity="1"></use></g></g><g><use xlink:href="#aSrbYub2" opacity="1" fill="#191512" fill-opacity="1"></use><g><use xlink:href="#aSrbYub2" opacity="1" fill-opacity="0" stroke="#000000" stroke-width="1" stroke-opacity="0"></use></g></g><g><use xlink:href="#boUQmUh9C" opacity="1" fill="#000000" fill-opacity="0"></use><g><use xlink:href="#boUQmUh9C" opacity="1" fill-opacity="0" stroke="#7c5136" stroke-width="0" stroke-opacity="1"></use></g></g><g><use xlink:href="#b152zgU8BJ" opacity="1" fill="#ffffff" fill-opacity="1"></use><g><use xlink:href="#b152zgU8BJ" opacity="1" fill-opacity="0" stroke="#000000" stroke-width="1" stroke-opacity="0"></use></g></g><g><use xlink:href="#b3i5VhyFlB" opacity="1" fill="#000000" fill-opacity="0"></use><g><use xlink:href="#b3i5VhyFlB" opacity="1" fill-opacity="0" stroke="#7c5136" stroke-width="0" stroke-opacity="1"></use></g></g><g><use xlink:href="#b11XGaAjY" opacity="1" fill="#212121" fill-opacity="1"></use><g><use xlink:href="#b11XGaAjY" opacity="1" fill-opacity="0" stroke="#000000" stroke-width="1" stroke-opacity="0"></use></g></g><g><use xlink:href="#b1bp49XPgd" opacity="1" fill="#000000" fill-opacity="0"></use><g><use xlink:href="#b1bp49XPgd" opacity="1" fill-opacity="0" stroke="#7c5136" stroke-width="0" stroke-opacity="1"></use></g></g></g></g></svg>